<svg width="18" height="18" fill="none" xmlns="http://www.w3.org/2000/svg"><path d="M17 9A8 8 0 1 1 1 9a8 8 0 0 1 16 0z" fill="url(#paint0_linear)"/><path fill-rule="evenodd" clip-rule="evenodd" d="M9 2a7 7 0 1 0 0 14A7 7 0 0 0 9 2zM0 9a9 9 0 1 1 18 0A9 9 0 0 1 0 9z" fill="#FFF4CC"/><g filter="url(#filter0_d)"><path d="M5 5h2v3h4V5h2v8h-2v-3H7v3H5V5z" fill="#fff"/></g><defs><filter id="filter0_d" x="4" y="5" width="10" height="10" filterUnits="userSpaceOnUse" color-interpolation-filters="sRGB"><feFlood flood-opacity="0" result="BackgroundImageFix"/><feColorMatrix in="SourceAlpha" values="0 0 0 0 0 0 0 0 0 0 0 0 0 0 0 0 0 0 127 0"/><feOffset dy="1"/><feGaussianBlur stdDeviation=".5"/><feColorMatrix values="0 0 0 0 0 0 0 0 0 0 0 0 0 0 0 0 0 0 0.1 0"/><feBlend in2="BackgroundImageFix" result="effect1_dropShadow"/><feBlend in="SourceGraphic" in2="effect1_dropShadow" result="shape"/></filter><linearGradient id="paint0_linear" x1="1" y1="1" x2="17" y2="17" gradientUnits="userSpaceOnUse"><stop stop-color="#FFD466"/><stop offset="1" stop-color="#FFA901"/><stop offset="1" stop-color="#FFA601"/></linearGradient></defs></svg>