<svg width="465" height="350" fill="none" xmlns="http://www.w3.org/2000/svg"><path d="M300.461 158.967s22.636 36.276 44.268 56.262c21.632 19.985 46.812 40.459 31.563 78.056-15.25 37.598-60.195 52.995-140.569 51.03-80.373-1.965-108.752-2.393-126.379-42.265-17.627-39.873 41.039-48.815 81.112-60.937 40.073-12.123 110.005-82.146 110.005-82.146z" fill="#EDE6FA"/><path opacity=".49" d="M304.327 238.16s11.024 42.553-28.281 52.653c-39.304 10.105-112.644 8.617-140.254-11.043-27.61-19.66 168.535-41.61 168.535-41.61z" fill="#BCACE1"/><path d="M406.647 311.825c3.891-2.397 5.747-7.648 4.225-11.956-2.491-7.042-8.931-4.668-13.508-8.367-5.391-4.353 1.128-11.202.768-16.343-.393-5.656-5.485-11.119-7.019-16.586-3.517-12.565 10.767-3.188 14.841-4.653 1.703-.613 2.82-2.324 3.214-4.096.999-4.517-.901-8.166 1.571-12.44 2.389-4.127 5.917-5.989 4.899-11.593-.575-3.172-2.533-6.08-2.484-9.305.016-.924.277-1.961 1.083-2.412.614-.344 1.378-.25 2.041-.019 2.199.773 3.646 2.825 5.417 4.343 1.772 1.518 4.619 2.457 6.319.859 1.132-1.064 1.242-2.782 1.473-4.32.412-2.771 2.358-4.694 4.774-3.093 2.631 1.746 1.624 8.617 1.226 11.082-.628 3.907-1.582 7.965-.42 11.751 1.919 6.262 7.167-.754 9.453-2.828 1.874-1.7 5.005-2.718 6.803-.943 3.582 3.532-2.176 8.253-2.934 11.6-.363 1.594.106 3.502 1.522 4.32 4.146 2.4 7.648-1.878 8.276 4.509.432 4.376-3.528 8.548-1.071 12.924 2.146 3.824 9.29 5.448 6.466 10.813-1.734 3.293-9.2 3.146-8.806 7.833.258 3.055 4.85 4.44 4.854 7.507.003 2.309-2.685 3.672-4.99 3.79-2.306.117-4.736-.421-6.86.48-2.412 1.023-3.809 3.987-3.063 6.501.651 2.184 2.684 4.172 2.044 6.36-.768 2.631-4.414 2.726-7.121 2.306-11.062-1.731-22.908-2.885-32.993 1.976z" fill="#FFA601"/><path d="M427.537 310.734a.707.707 0 0 1-.708-.708V260.67a.71.71 0 0 1 .708-.708c.394 0 .708.318.708.708v49.353a.707.707 0 0 1-.708.711z" fill="#fff"/><path d="M427.537 291.525a.711.711 0 0 1-.549-1.158l12.944-15.958a.71.71 0 0 1 1.101.897l-12.943 15.958a.722.722 0 0 1-.553.261zm0-13.478a.699.699 0 0 1-.458-.166l-15.427-12.982a.712.712 0 0 1-.087-.999.712.712 0 0 1 .999-.087l15.427 12.981a.713.713 0 0 1 .087 1 .695.695 0 0 1-.541.253z" fill="#fff"/><path d="M404.489 304.908c2.029 13.489 3.858 27.599 7.272 40.615.284 1.082.617 2.218 1.306 2.915.814.821 1.92.836 2.938.814 5.891-.137 11.793.242 17.684.208 5.569-.03 10.169.42 10.752-8.829.2-3.206.708-35.727 3.664-35.727-.011.004-43.616.004-43.616.004z" fill="#41ABFC"/><path d="M444.123 312.968h-35.652c-4.433 0-8.063-3.627-8.063-8.064 0-4.433 3.626-8.064 8.063-8.064h35.652c4.433 0 8.064 3.627 8.064 8.064s-3.631 8.064-8.064 8.064z" fill="#8CD9FE"/><path d="M272.268 16.84s4.672 10.38-2.627 16.77c-7.3 6.391-17.222 1.333-26.853 7.186-9.632 5.853-8.594 12.789-4.176 28.231 5.255 18.37 10.994 17.82 16.154 19.15 5.16 1.332 6.701 15.707 7.284 22.362.583 6.656 1.458 11.18-16.93 20.232-18.388 9.052-8.356 22.896-6.512 40.841 2.041 19.849-21.511 31.298-25.596 36.091-4.085 4.793-13.72 5.591-18.975-4.524-5.254-10.116 21.447-17.563 19.115-33.8-2.336-16.238-16.593-27.164 3.547-43.136 20.141-15.973 16.162-28.746 9.45-41.788-6.712-13.043-9.923-18.1-4.38-34.872 5.542-16.771-.292-11.713 7.003-25.024 7.303-13.308 33.865-27.951 43.496-7.72z" fill="#6F609E"/><path d="M259.566 95.626l1.466 27.33 21.393 8.25s-12.864-18.823-10.683-35.583c2.18-16.756-12.176.003-12.176.003z" fill="#D4A79A"/><path d="M309.146 184.287s-1.42-2.601-5.675-15.957c-4.255-13.357-5.792-18.324-11.702-31.248-5.91-12.925-18.206-21.001-18.206-21.001l-15.367-.829s-1.893.118-10.756 7.447c-8.866 7.33-17.377 28.254-17.377 28.254l-3.782 41.61 26.6 19.622 18.8 6.777c-.905-1.208-1.635-2.488-2.09-3.843-3.149-9.362 7.406-61.213 7.761-65.824.356-4.611 9.287 39.365 9.287 39.365l7.735-2.245 5.307 16.911 3.32-17.267 6.145-1.772z" fill="#FF4956"/><path d="M300.753 206.749l-1.075-3.423-1.715 8.92 2.79-5.497z" fill="url(#paint0_linear)"/><path d="M286.631 188.66s-8.93-43.976-9.286-39.365c-.356 4.611-10.911 56.462-7.761 65.824.454 1.356 1.185 2.635 2.09 3.843l19.341 6.97 6.947-13.69 1.715-8.919-5.307-16.912-7.739 2.249z" fill="#FDC510"/><path d="M286.631 188.66s-8.93-43.976-9.286-39.365c-.356 4.611-10.911 56.462-7.761 65.824.454 1.356 1.185 2.635 2.09 3.843l19.341 6.97 6.947-13.69 1.715-8.919-5.307-16.912-7.739 2.249z" fill="#D7384E"/><path d="M129.89 172.123l108.601 5.24 21.076 20.413-101.438-2.555-28.239-23.098z" fill="#616F97"/><path d="M232.297 180.657l-98.046-6.622c-2.65.205-4.948-1.578-5.133-3.99l-19.759-53.009c-.185-2.408 1.81-4.528 4.456-4.733l98.046 6.626c2.65-.205 4.948 1.578 5.134 3.99l19.758 53.009c.189 2.404-1.81 4.524-4.456 4.729z" fill="#EDE6FA"/><path d="M183.109 150.928c1.165-5.359-2.959-10.805-9.211-12.164-6.252-1.359-12.265 1.884-13.43 7.243-1.165 5.359 2.96 10.806 9.212 12.164 6.252 1.359 12.265-1.884 13.429-7.243z" fill="#BCACE1"/><path d="M85.213 266.255L57.49 306.858l12.622 10.664 26.41-44.082c0-.004-6.054-6.814-11.309-7.185z" fill="#D4A79A"/><path d="M1.342 329.505s10.664 3.642 31.1 5.156c20.436 1.518 43.246 2.275 47.392-.757 4.145-3.033 6.81-28.818 0-28.818-6.811 0-9.461 9.858-21.474 1.06-10.29-7.538-18.513 6.674-36.43 10.464-17.92 3.79-25.177 5.312-20.588 12.895z" fill="#FF7B01"/><path d="M257.783 222.35c-2.449-4.607-15.707-2.01-31.596-7.92-15.893-5.91-26.157-18.323-44.211-32.626-18.055-14.303-16.821-11.823-24.612-12.414-7.791-.591-17.438 20.451-22.882 31.566-11.46 23.404-25.963 44.317-47.63 57.924-6.583 4.134-35.59 19.86-40.436 26.448-10.207 13.863 39.975 13.981 53.096 15.582 12.99 1.583 20.274-5.796 25.528-17.456 5.997-13.3 12.558-26.316 19.111-39.331 3.279-6.512 6.572-13.02 9.787-19.566 1.385-2.82 4.384-13.057 7.727-14.333 10.282-3.914 23.854 27.429 26.739 34.47 5.811 14.186 27.084 30.737 42.541 32.392 15.458 1.654 27.084-8.628 32.154-23.643 5.073-15.014-5.316-31.093-5.316-31.093z" fill="#40B3B7"/><path d="M138.098 269.332l-27.724 40.604 12.622 10.664 26.41-44.082c-.004-.004-6.053-6.815-11.308-7.186z" fill="#EAC2AB"/><path d="M54.226 332.582s10.665 3.642 31.1 5.157c20.437 1.518 43.247 2.275 47.392-.757 4.146-3.033 6.811-28.818 0-28.818s-9.461 9.858-21.473 1.06c-10.29-7.538-18.513 6.674-36.431 10.464-17.919 3.789-25.18 5.311-20.588 12.894z" fill="#FFA601"/><path d="M297.913 222.35c-2.339-4.607-15.014-2.01-30.203-7.92s-25.002-18.323-42.261-32.626c-17.26-14.303-16.079-11.823-23.526-12.414-7.446-.591-16.669 20.451-21.87 31.566-16.003 34.19-48.936 57.136-78.909 78.246-1.863 1.31-3.952 3.131-3.566 5.376.197 1.143 1.014 2.067 1.851 2.874 11.119 10.732 31.949 15.559 46.918 14.859 15.072-.704 23.253-13.281 28.947-25.717 10.184-22.25 20.133-45.177 32.505-66.294 4.649-7.928 19.467 24.078 20.754 27.057 7.674 17.794 22.908 37.401 43.711 39.729 14.776 1.654 25.888-8.628 30.738-23.643 4.842-15.014-5.089-31.093-5.089-31.093z" fill="#8EE9DD"/><path d="M240.452 37.45s-11.426 8.427-6.879 27.356c4.547 18.93 18.687 35.095 24.392 33.955 15.776-3.15 21.307-14.299 26.777-23.866 6.709-11.732-6.61-40.353-6.61-40.353l-12.58-6.784-25.1 9.692z" fill="#EAC2AB"/><path d="M263.22 29.087s7.939 2.661 14.916 13.84c6.977 11.18 2.4 13.005 2.4 27.993 0 4.38-.821 8.696-3.195 12.429-1.723 2.71-4.18 4.846-5.963 7.504-2.252 3.354-2.972 7.14-2.79 11.141.383 8.462 1.734 15.488 9.249 20.266 8.124 5.164 11.914 12.062 14.049 21.382 2.556 11.161 20.955 17.476 27.376 13.217 6.42-4.259-12.732-1.416-8.935-19.781 3.794-18.369 5.096-26.164-5.997-31.268-11.092-5.103-5.792-6.45.046-17.63s-9.211-11.044-3.271-30.503c6.856-22.461.643-47.493-32.926-40.573-33.569 6.92-4.959 11.983-4.959 11.983z" fill="#6F609E"/><path d="M255.046 50.461c9.631-5.856 7.299-10.464 14.598-16.85 7.296-6.39 2.628-16.772 2.628-16.772-9.631-20.231-36.193-5.591-43.492 7.72-7.299 13.31-1.458 8.253-7.004 25.024-3.824 11.558-3.483 17.555-.704 24.438l15.7 6.356c-6.357-24.116 11.028-25.513 18.274-29.916z" fill="#6F609E"/><path d="M294.131 206.037s0 6.5-2.483 5.319c-2.484-1.181-25.77-15.723-28.845-19.149-3.074-3.43-10.286-15.84-10.638-18.323-.356-2.484.829-2.601-4.02-1.893-4.846.708-13.595 3.43-12.293 4.963 1.299 1.537 4.963.473 4.963.473s-4.293 2.719-2.207 3.074c2.086.356 8.234-.829 8.234 1.064s-.356 8.276 1.064 11.468c1.42 3.191 3.192 4.255 7.803 5.319s5.425.708 9.215 4.611c3.789 3.903 24.948 22.696 27.666 23.642 2.719.947 3.9 2.601 7.213-3.43 3.312-6.03 5.675-10.638 5.909-20.095.235-9.457-.829-18.558-.829-18.558l-10.521 1.893c.008 0 .951 10.638-.231 19.622z" fill="#EAC2AB"/><path d="M328.166 85.954c1.885-8.64 6.095-17.252 9.184-25.547 1.643-4.407 5.251-10.35 5.619-15.072.121-1.548 1.597-2.695 3.297-2.563l62.974-4.255c1.7.133 2.983 1.492 2.862 3.04l-12.69 34.046c-.121 1.549-1.598 2.696-3.298 2.563l-50.787 3.245c-3.112 1.889-8.049 3.778-11.164 5.66-3.457 2.085-7.727 6.81-5.997-1.117z" fill="#EDE6FA"/><path d="M373.74 64.276l20.462-.89a2.51 2.51 0 0 0 2.393-2.612 2.51 2.51 0 0 0-2.612-2.392l-20.463.89a2.51 2.51 0 0 0-2.392 2.611 2.515 2.515 0 0 0 2.612 2.393zM359.024 55.8l37.071-1.61a2.51 2.51 0 0 0 2.393-2.612 2.51 2.51 0 0 0-2.612-2.393l-37.071 1.61a2.51 2.51 0 0 0-2.393 2.612 2.513 2.513 0 0 0 2.612 2.392z" fill="#fff"/><path d="M143.811 93.692c-2.181-10.002-7.054-19.97-10.635-29.571-1.9-5.1-6.08-11.979-6.504-17.445-.14-1.791-1.847-3.12-3.816-2.965l-72.893-4.925c-1.968.151-3.452 1.726-3.312 3.517l14.689 39.41c.14 1.791 1.847 3.12 3.816 2.965l58.786 3.76c3.605 2.184 9.314 4.376 12.925 6.552 4.002 2.412 8.946 7.883 6.944-1.298z" fill="#EDE6FA"/><path d="M91.059 68.6l-23.685-1.03a2.91 2.91 0 0 1-2.77-3.025 2.91 2.91 0 0 1 3.024-2.772l23.684 1.03a2.91 2.91 0 0 1 2.772 3.025 2.912 2.912 0 0 1-3.025 2.771zm17.032-9.81l-42.912-1.862a2.91 2.91 0 0 1-2.772-3.025 2.91 2.91 0 0 1 3.025-2.771l42.913 1.862a2.91 2.91 0 0 1 2.771 3.025 2.912 2.912 0 0 1-3.025 2.771z" fill="#fff"/><g opacity=".72"><path d="M183.831 35.348c-1.405-6.44-4.543-12.856-6.845-19.039-1.223-3.282-3.915-7.711-4.187-11.232-.091-1.155-1.189-2.007-2.457-1.908l-46.933-3.17c-1.269.1-2.223 1.114-2.136 2.265l9.457 25.373c.091 1.154 1.189 2.006 2.457 1.908l37.851 2.419c2.321 1.408 5.997 2.816 8.322 4.217 2.578 1.556 5.758 5.077 4.471-.833z" fill="#EDE6FA"/><path d="M149.864 19.19l-15.249-.662a1.872 1.872 0 0 1-1.784-1.946 1.872 1.872 0 0 1 1.946-1.783l15.25.662a1.871 1.871 0 0 1 1.783 1.946 1.872 1.872 0 0 1-1.946 1.783zm10.968-6.314l-27.63-1.2a1.871 1.871 0 0 1-1.783-1.946 1.872 1.872 0 0 1 1.946-1.784l27.629 1.2a1.87 1.87 0 0 1 1.783 1.946 1.87 1.87 0 0 1-1.945 1.784z" fill="#fff"/></g><path d="M186.689 72.06l-23.684-1.03a2.909 2.909 0 0 1-2.771-3.025 2.91 2.91 0 0 1 3.024-2.771l23.685 1.03a2.91 2.91 0 0 1 2.771 3.024 2.914 2.914 0 0 1-3.025 2.772zm2.362 11.573l-23.684-1.03a2.91 2.91 0 0 1-2.771-3.025 2.91 2.91 0 0 1 3.025-2.77l23.684 1.029a2.91 2.91 0 0 1 2.771 3.025 2.91 2.91 0 0 1-3.025 2.771zm4.199 11.884l-23.684-1.03a2.91 2.91 0 0 1-2.772-3.025 2.91 2.91 0 0 1 3.025-2.771l23.685 1.03a2.91 2.91 0 0 1 2.771 3.025 2.91 2.91 0 0 1-3.025 2.77z" fill="#BCACE1"/><defs><linearGradient id="paint0_linear" x1="312.305" y1="170.019" x2="264.332" y2="153.054" gradientUnits="userSpaceOnUse"><stop stop-color="#A7ADFF"/><stop offset="1" stop-color="#E3E5FC"/></linearGradient></defs></svg>